<svg id="bg-colors" xmlns="http://www.w3.org/2000/svg" viewBox="0 0 145.1 145.2"><defs><style>.cls-1{fill:#fcfcfc;}.cls-2{fill:none;stroke:#424242;stroke-miterlimit:10;stroke-width:3px;}.cls-3{fill:#424242;}</style></defs><title>black_cookie</title><path class="cls-1" d="M1636.63,3120.93a72.22,72.22,0,0,0-42.58-.2,4,4,0,0,0-2,6.24,18.92,18.92,0,0,1-3.21,25.84,6.46,6.46,0,0,0-2.32,5.84,29,29,0,0,1-.61,11.11,29.45,29.45,0,0,1-24.9,22,29.1,29.1,0,0,1-13.72-1.64,2.55,2.55,0,0,0-3.4,2.55,71.11,71.11,0,0,0,67.18,67.09c44.87,2.41,82.26-37.32,73.69-84.65A69.85,69.85,0,0,0,1636.63,3120.93Z" transform="translate(-1542.38 -3116.13)"/><path class="cls-2" d="M1636.63,3120.93a72.22,72.22,0,0,0-42.58-.2,4,4,0,0,0-2,6.24,18.92,18.92,0,0,1-3.21,25.84,6.46,6.46,0,0,0-2.32,5.84,29,29,0,0,1-.61,11.11,29.45,29.45,0,0,1-24.9,22,29.1,29.1,0,0,1-13.72-1.64,2.55,2.55,0,0,0-3.4,2.55,71.11,71.11,0,0,0,67.18,67.09c44.87,2.41,82.26-37.32,73.69-84.65A69.85,69.85,0,0,0,1636.63,3120.93Z" transform="translate(-1542.38 -3116.13)"/><circle class="cls-3" cx="77.56" cy="89" r="7.25"/><circle class="cls-3" cx="86.06" cy="45.03" r="7.25"/><circle class="cls-3" cx="121.6" cy="75" r="7.25"/><circle class="cls-3" cx="24.92" cy="94.32" r="7.25"/><circle class="cls-3" cx="69.55" cy="128.6" r="7.25"/><circle class="cls-3" cx="40.08" cy="62.74" r="7.25"/><circle class="cls-3" cx="77.56" cy="7.29" r="7.25"/><circle class="cls-3" cx="134.11" cy="33.47" r="7.25"/><circle class="cls-3" cx="117.27" cy="113.82" r="7.25"/></svg>