<svg id="bg-colors" xmlns="http://www.w3.org/2000/svg" viewBox="0 0 1145.23 145.2"><defs><style>.cls-1{fill:#fcfcfc;}.cls-2{fill:none;stroke:#424242;stroke-miterlimit:10;stroke-width:3px;}.cls-3{fill:#424242;}.cls-4{fill:#ffaaf3;}.cls-5{fill:#bcaa7e;}.cls-6{fill:#dede80;}</style></defs><title>cookie_colored</title><path class="cls-1" d="M1636.63,3120.93a72.22,72.22,0,0,0-42.58-.2,4,4,0,0,0-2,6.24,18.92,18.92,0,0,1-3.21,25.84,6.46,6.46,0,0,0-2.32,5.84,29,29,0,0,1-.61,11.11,29.45,29.45,0,0,1-24.9,22,29.1,29.1,0,0,1-13.72-1.64,2.55,2.55,0,0,0-3.4,2.55,71.11,71.11,0,0,0,67.18,67.09c44.87,2.41,82.26-37.32,73.69-84.65A69.85,69.85,0,0,0,1636.63,3120.93Z" transform="translate(-1542.38 -3116.13)"/><path class="cls-2" d="M1636.63,3120.93a72.22,72.22,0,0,0-42.58-.2,4,4,0,0,0-2,6.24,18.92,18.92,0,0,1-3.21,25.84,6.46,6.46,0,0,0-2.32,5.84,29,29,0,0,1-.61,11.11,29.45,29.45,0,0,1-24.9,22,29.1,29.1,0,0,1-13.72-1.64,2.55,2.55,0,0,0-3.4,2.55,71.11,71.11,0,0,0,67.18,67.09c44.87,2.41,82.26-37.32,73.69-84.65A69.85,69.85,0,0,0,1636.63,3120.93Z" transform="translate(-1542.38 -3116.13)"/><path class="cls-1" d="M1970,3120.93a72.22,72.22,0,0,0-42.58-.2,4,4,0,0,0-2,6.24,18.92,18.92,0,0,1-3.21,25.84,6.46,6.46,0,0,0-2.32,5.84,29,29,0,0,1-.61,11.11,29.45,29.45,0,0,1-24.9,22,29.1,29.1,0,0,1-13.72-1.64,2.55,2.55,0,0,0-3.4,2.55,71.11,71.11,0,0,0,67.18,67.09c44.87,2.41,82.26-37.32,73.69-84.65A69.85,69.85,0,0,0,1970,3120.93Z" transform="translate(-1542.38 -3116.13)"/><path class="cls-1" d="M2303.38,3120.93a72.22,72.22,0,0,0-42.58-.2,4,4,0,0,0-2,6.24,18.92,18.92,0,0,1-3.21,25.84,6.46,6.46,0,0,0-2.32,5.84,29,29,0,0,1-.61,11.11,29.45,29.45,0,0,1-24.9,22,29.1,29.1,0,0,1-13.72-1.64,2.55,2.55,0,0,0-3.4,2.55,71.11,71.11,0,0,0,67.18,67.09c44.87,2.41,82.26-37.32,73.69-84.65A69.85,69.85,0,0,0,2303.38,3120.93Z" transform="translate(-1542.38 -3116.13)"/><path class="cls-2" d="M2303.38,3120.93a72.22,72.22,0,0,0-42.58-.2,4,4,0,0,0-2,6.24,18.92,18.92,0,0,1-3.21,25.84,6.46,6.46,0,0,0-2.32,5.84,29,29,0,0,1-.61,11.11,29.45,29.45,0,0,1-24.9,22,29.1,29.1,0,0,1-13.72-1.64,2.55,2.55,0,0,0-3.4,2.55,71.11,71.11,0,0,0,67.18,67.09c44.87,2.41,82.26-37.32,73.69-84.65A69.85,69.85,0,0,0,2303.38,3120.93Z" transform="translate(-1542.38 -3116.13)"/><path class="cls-1" d="M2636.76,3120.93a72.22,72.22,0,0,0-42.58-.2,4,4,0,0,0-2,6.24,18.92,18.92,0,0,1-3.21,25.84,6.46,6.46,0,0,0-2.32,5.84,29,29,0,0,1-.61,11.11,29.45,29.45,0,0,1-24.9,22,29.1,29.1,0,0,1-13.72-1.64,2.55,2.55,0,0,0-3.4,2.55,71.11,71.11,0,0,0,67.18,67.09c44.87,2.41,82.26-37.32,73.69-84.65A69.85,69.85,0,0,0,2636.76,3120.93Z" transform="translate(-1542.38 -3116.13)"/><path class="cls-2" d="M2636.76,3120.93a72.22,72.22,0,0,0-42.58-.2,4,4,0,0,0-2,6.24,18.92,18.92,0,0,1-3.21,25.84,6.46,6.46,0,0,0-2.32,5.84,29,29,0,0,1-.61,11.11,29.45,29.45,0,0,1-24.9,22,29.1,29.1,0,0,1-13.72-1.64,2.55,2.55,0,0,0-3.4,2.55,71.11,71.11,0,0,0,67.18,67.09c44.87,2.41,82.26-37.32,73.69-84.65A69.85,69.85,0,0,0,2636.76,3120.93Z" transform="translate(-1542.38 -3116.13)"/><circle class="cls-3" cx="77.56" cy="89" r="7.25"/><circle class="cls-3" cx="86.06" cy="45.03" r="7.25"/><circle class="cls-3" cx="121.6" cy="75" r="7.25"/><circle class="cls-3" cx="24.92" cy="94.32" r="7.25"/><circle class="cls-3" cx="69.55" cy="128.6" r="7.25"/><circle class="cls-3" cx="40.08" cy="62.74" r="7.25"/><circle class="cls-3" cx="77.56" cy="7.29" r="7.25"/><circle class="cls-3" cx="134.11" cy="33.47" r="7.25"/><circle class="cls-3" cx="117.27" cy="113.82" r="7.25"/><circle class="cls-4" cx="409.76" cy="88.05" r="7.25"/><circle class="cls-4" cx="418.26" cy="44.08" r="7.25"/><circle class="cls-4" cx="454.8" cy="75.05" r="7.25"/><circle class="cls-4" cx="357.11" cy="93.37" r="7.25"/><circle class="cls-4" cx="401.75" cy="127.65" r="7.25"/><circle class="cls-4" cx="449.47" cy="112.87" r="7.25"/><path class="cls-4" d="M1911.79,3185.21a9.15,9.15,0,0,0,4.35,1.34,7.25,7.25,0,0,0,7.25-7.25,8.31,8.31,0,0,0-3.51-6.48A30.61,30.61,0,0,1,1911.79,3185.21Z" transform="translate(-1542.38 -3116.13)"/><path class="cls-4" d="M1959.87,3123.84a7.21,7.21,0,0,0-1.31-4.15,72.49,72.49,0,0,0-11.35-.66A7.25,7.25,0,1,0,1959.87,3123.84Z" transform="translate(-1542.38 -3116.13)"/><path class="cls-4" d="M2007.17,3157.27a10.16,10.16,0,0,0,3.19-.48,73.58,73.58,0,0,0-7.83-12.25,8.62,8.62,0,0,0-2.6,5.48A7.25,7.25,0,0,0,2007.17,3157.27Z" transform="translate(-1542.38 -3116.13)"/><circle class="cls-5" cx="743.13" cy="88.05" r="7.25"/><circle class="cls-5" cx="751.63" cy="44.08" r="7.25"/><circle class="cls-5" cx="788.17" cy="75.05" r="7.25"/><circle class="cls-5" cx="694.49" cy="95.37" r="7.25"/><circle class="cls-5" cx="735.12" cy="127.65" r="7.25"/><circle class="cls-5" cx="782.85" cy="112.87" r="7.25"/><path class="cls-5" d="M2243.57,3186.62c1.12,0.71,3.53,1.92,4.95,1.92a7.25,7.25,0,0,0,7.25-7.25,8.31,8.31,0,0,0-3.51-6.48C2250.68,3179.52,2247.11,3183.32,2243.57,3186.62Z" transform="translate(-1542.38 -3116.13)"/><path class="cls-5" d="M2293.25,3123.84a7.21,7.21,0,0,0-1.31-4.15,72.49,72.49,0,0,0-11.35-.66A7.25,7.25,0,1,0,2293.25,3123.84Z" transform="translate(-1542.38 -3116.13)"/><path class="cls-5" d="M2340.55,3157.27a10.16,10.16,0,0,0,3.19-.48,73.58,73.58,0,0,0-7.83-12.25,8.62,8.62,0,0,0-2.6,5.48A7.25,7.25,0,0,0,2340.55,3157.27Z" transform="translate(-1542.38 -3116.13)"/><circle class="cls-6" cx="1076.51" cy="88.05" r="7.25"/><circle class="cls-6" cx="1085.01" cy="44.08" r="7.25"/><circle class="cls-6" cx="1121.55" cy="75.05" r="7.25"/><circle class="cls-6" cx="1027.87" cy="95.37" r="7.25"/><circle class="cls-6" cx="1068.5" cy="127.65" r="7.25"/><circle class="cls-6" cx="1116.22" cy="112.87" r="7.25"/><path class="cls-6" d="M2576.94,3186.62c1.12,0.71,3.53,1.92,4.95,1.92a7.25,7.25,0,0,0,7.25-7.25,8.31,8.31,0,0,0-3.51-6.48C2584.06,3179.52,2580.49,3183.32,2576.94,3186.62Z" transform="translate(-1542.38 -3116.13)"/><path class="cls-6" d="M2626.62,3123.84a7.21,7.21,0,0,0-1.31-4.15A72.49,72.49,0,0,0,2614,3119,7.25,7.25,0,1,0,2626.62,3123.84Z" transform="translate(-1542.38 -3116.13)"/><path class="cls-6" d="M2673.92,3157.27a10.16,10.16,0,0,0,3.19-.48,73.58,73.58,0,0,0-7.83-12.25,8.62,8.62,0,0,0-2.6,5.48A7.25,7.25,0,0,0,2673.92,3157.27Z" transform="translate(-1542.38 -3116.13)"/></svg>