<svg id="bg-colors" xmlns="http://www.w3.org/2000/svg" viewBox="0 0 140.17 119.26"><defs><style>.cls-1{fill:#424242;}.cls-2{fill:none;stroke:#424242;stroke-linecap:round;stroke-miterlimit:10;stroke-width:4px;}.cls-3{fill:#fff;}</style></defs><title>crookie_logo</title><ellipse class="cls-1" cx="2187.85" cy="2560.48" rx="4.71" ry="7.53" transform="translate(-2941.9 1556.52) rotate(-76.25)"/><ellipse class="cls-1" cx="2212.21" cy="2557.74" rx="7.53" ry="4.71" transform="translate(-3014.05 -1305.49) rotate(-25.75)"/><path class="cls-1" d="M2219,2560.66l-40.31,4.54c-3.07-.49-25,6.17-26.24.71h0c-0.14-1.26,12.51-1.27,21.27-4.19a71.35,71.35,0,0,1,14.61-3.1,68,68,0,0,0,11.9-.22,38.58,38.58,0,0,0,9.43-2.18c3.73-.1,7.64-0.55,11.61-0.06,4.17,0.52,10.05-.82,10.19.35h0C2232.7,2560.11,2220.51,2560.49,2219,2560.66Z" transform="translate(-2122.59 -2520.43)"/><path class="cls-2" d="M2212.27,2527.56a40.37,40.37,0,0,0-23.28-5,2.23,2.23,0,0,0-1.81,3.18,10.57,10.57,0,0,1-4.7,13.77,3.61,3.61,0,0,0-1.94,2.93,16.21,16.21,0,0,1-1.6,6,16.46,16.46,0,0,1-16.13,9.18,16.26,16.26,0,0,1-7.32-2.46,1.42,1.42,0,0,0-2.15,1,39.77,39.77,0,1,0,79.09,6.45A39,39,0,0,0,2212.27,2527.56Z" transform="translate(-2122.59 -2520.43)"/><circle class="cls-3" cx="2210.45" cy="2558.87" r="2.42" transform="translate(-2394.9 -2257.16) rotate(-6.42)"/><circle class="cls-3" cx="2189.81" cy="2561.2" r="2.69" transform="translate(-2395.29 -2259.46) rotate(-6.42)"/><path class="cls-1" d="M2190.9,2570.82a9.82,9.82,0,1,0,19.51-2.2Z" transform="translate(-2122.59 -2520.43)"/><path class="cls-1" d="M2165.26,2636.81a1.89,1.89,0,0,1-1.31,2.43,3.53,3.53,0,0,1-.82.1h0a2.88,2.88,0,0,1-1.46-.38,3.51,3.51,0,0,1-1.19-1.21,8.73,8.73,0,0,1-.78-4.16,2.77,2.77,0,0,0-.45-1.49,3.36,3.36,0,0,0-1.12-1,7.41,7.41,0,0,0-2.09-.83h-4.41v7.52a2,2,0,0,1-2.09,1.91,2,2,0,0,1-2.05-1.91v-20.45a2,2,0,0,1,2.05-1.91h6.68a7.71,7.71,0,0,1,8,7.45,7.15,7.15,0,0,1-2.91,5.68,5.57,5.57,0,0,1,1.31,1.28,6.24,6.24,0,0,1,1.23,3.74,8.15,8.15,0,0,0,.15,2A2,2,0,0,1,2165.26,2636.81Zm-5.23-13.93a3.71,3.71,0,0,0-3.85-3.6h-4.59v7.14h4.59A3.7,3.7,0,0,0,2160,2622.88Z" transform="translate(-2122.59 -2520.43)"/><path class="cls-1" d="M2188.13,2619a12.38,12.38,0,0,1,0,17,11,11,0,0,1-8.05,3.61,11.37,11.37,0,0,1-8.25-3.61,12.56,12.56,0,0,1,0-17,11.24,11.24,0,0,1,8.25-3.6A10.91,10.91,0,0,1,2188.13,2619Zm-0.44,8.52a8.73,8.73,0,0,0-2.29-5.9,7.27,7.27,0,0,0-10.78,0,8.57,8.57,0,0,0-2.29,5.9,8.43,8.43,0,0,0,2.29,5.86,7.2,7.2,0,0,0,10.78,0A8.58,8.58,0,0,0,2187.69,2627.55Z" transform="translate(-2122.59 -2520.43)"/><path class="cls-1" d="M2213.63,2619a12.38,12.38,0,0,1,0,17,11,11,0,0,1-8.05,3.61,11.37,11.37,0,0,1-8.25-3.61,12.56,12.56,0,0,1,0-17,11.24,11.24,0,0,1,8.25-3.6A10.91,10.91,0,0,1,2213.63,2619Zm-0.44,8.52a8.73,8.73,0,0,0-2.29-5.9,7.27,7.27,0,0,0-10.78,0,8.57,8.57,0,0,0-2.29,5.9,8.43,8.43,0,0,0,2.29,5.86,7.2,7.2,0,0,0,10.78,0A8.58,8.58,0,0,0,2213.19,2627.55Z" transform="translate(-2122.59 -2520.43)"/><path class="cls-1" d="M2219.85,2637.76v-20.42a1.85,1.85,0,1,1,3.71,0v10l10.92-11.34a1.79,1.79,0,0,1,2.63,0,2,2,0,0,1,0,2.72l-7.41,7.64,7.48,10.16a1.91,1.91,0,0,1-.27,2.69,1.68,1.68,0,0,1-1.18.45,1.8,1.8,0,0,1-1.38-.7l-7.28-9.88-3.5,3.7v5A1.85,1.85,0,1,1,2219.85,2637.76Z" transform="translate(-2122.59 -2520.43)"/><path class="cls-1" d="M2240.44,2618a1.83,1.83,0,0,1,1.85-1.85,1.88,1.88,0,0,1,1.89,1.85v19.88a1.88,1.88,0,0,1-1.89,1.85,1.83,1.83,0,0,1-1.85-1.85V2618Z" transform="translate(-2122.59 -2520.43)"/><path class="cls-1" d="M2248,2637.83v-68.46a1.83,1.83,0,0,1,1.85-1.85h11a1.87,1.87,0,0,1,1.85,1.85,1.9,1.9,0,0,1-1.85,1.89h-9.13l0.17,54.85h7.85a1.87,1.87,0,0,1,0,3.74h-7.85l-0.17,6.1h9.13a1.87,1.87,0,0,1,0,3.74H2250c-0.07,0-.07,0-0.07,0l0,0A1.85,1.85,0,0,1,2248,2637.83Z" transform="translate(-2122.59 -2520.43)"/><path class="cls-1" d="M2122.59,2581.67a12.33,12.33,0,0,1,12.37-12.13,12.6,12.6,0,0,1,7.78,2.63,2,2,0,0,1,.34,2.7,2,2,0,0,1-2.7.37,8.47,8.47,0,0,0-5.42-1.85,8.92,8.92,0,0,0-6.06,2.43,8.19,8.19,0,0,0-2.46,5.86" transform="translate(-2122.59 -2520.43)"/><path class="cls-1" d="M2126.43,2627.55a8.19,8.19,0,0,0,2.46,5.86,8.92,8.92,0,0,0,6.06,2.43,8.47,8.47,0,0,0,5.42-1.85,2,2,0,0,1,2.7.37,2,2,0,0,1-.34,2.7,12.6,12.6,0,0,1-7.78,2.63,12.33,12.33,0,0,1-12.37-12.13" transform="translate(-2122.59 -2520.43)"/><rect class="cls-1" y="61.24" width="3.81" height="45.88"/><circle class="cls-1" cx="43.66" cy="61.4" r="3.57"/><circle class="cls-1" cx="65.61" cy="78.26" r="3.57"/><circle class="cls-1" cx="69.55" cy="18.6" r="3.57"/><circle class="cls-1" cx="97.35" cy="26.8" r="3.57"/><circle class="cls-1" cx="89.07" cy="70.99" r="3.57"/></svg>