<svg id="bg-colors" xmlns="http://www.w3.org/2000/svg" viewBox="0 0 142.1 142.2"><defs><style>.cls-1{fill:#fcfcfc;}.cls-2{fill:#ffaaf3;}</style></defs><title>pink_cookie</title><path class="cls-1" d="M1970,3120.93a72.22,72.22,0,0,0-42.58-.2,4,4,0,0,0-2,6.24,18.92,18.92,0,0,1-3.21,25.84,6.46,6.46,0,0,0-2.32,5.84,29,29,0,0,1-.61,11.11,29.45,29.45,0,0,1-24.9,22,29.1,29.1,0,0,1-13.72-1.64,2.55,2.55,0,0,0-3.4,2.55,71.11,71.11,0,0,0,67.18,67.09c44.87,2.41,82.26-37.32,73.69-84.65A69.85,69.85,0,0,0,1970,3120.93Z" transform="translate(-1877.26 -3117.63)"/><circle class="cls-2" cx="74.88" cy="86.55" r="7.25"/><circle class="cls-2" cx="83.38" cy="42.58" r="7.25"/><circle class="cls-2" cx="119.92" cy="73.55" r="7.25"/><circle class="cls-2" cx="22.24" cy="91.87" r="7.25"/><circle class="cls-2" cx="66.87" cy="126.15" r="7.25"/><circle class="cls-2" cx="114.59" cy="111.37" r="7.25"/><path class="cls-2" d="M1911.79,3185.21a9.15,9.15,0,0,0,4.35,1.34,7.25,7.25,0,0,0,7.25-7.25,8.31,8.31,0,0,0-3.51-6.48A30.61,30.61,0,0,1,1911.79,3185.21Z" transform="translate(-1877.26 -3117.63)"/><path class="cls-2" d="M1959.87,3123.84a7.21,7.21,0,0,0-1.31-4.15,72.49,72.49,0,0,0-11.35-.66A7.25,7.25,0,1,0,1959.87,3123.84Z" transform="translate(-1877.26 -3117.63)"/><path class="cls-2" d="M2007.17,3157.27a10.16,10.16,0,0,0,3.19-.48,73.58,73.58,0,0,0-7.83-12.25,8.62,8.62,0,0,0-2.6,5.48A7.25,7.25,0,0,0,2007.17,3157.27Z" transform="translate(-1877.26 -3117.63)"/></svg>