<svg id="bg-colors" xmlns="http://www.w3.org/2000/svg" viewBox="0 0 145.1 145.2"><defs><style>.cls-1{fill:#fcfcfc;}.cls-2{fill:none;stroke:#424242;stroke-miterlimit:10;stroke-width:3px;}.cls-3{fill:#dede80;}</style></defs><title>yellow_cookie</title><path class="cls-1" d="M2636.76,3120.93a72.22,72.22,0,0,0-42.58-.2,4,4,0,0,0-2,6.24,18.92,18.92,0,0,1-3.21,25.84,6.46,6.46,0,0,0-2.32,5.84,29,29,0,0,1-.61,11.11,29.45,29.45,0,0,1-24.9,22,29.1,29.1,0,0,1-13.72-1.64,2.55,2.55,0,0,0-3.4,2.55,71.11,71.11,0,0,0,67.18,67.09c44.87,2.41,82.26-37.32,73.69-84.65A69.85,69.85,0,0,0,2636.76,3120.93Z" transform="translate(-2542.52 -3116.13)"/><path class="cls-2" d="M2636.76,3120.93a72.22,72.22,0,0,0-42.58-.2,4,4,0,0,0-2,6.24,18.92,18.92,0,0,1-3.21,25.84,6.46,6.46,0,0,0-2.32,5.84,29,29,0,0,1-.61,11.11,29.45,29.45,0,0,1-24.9,22,29.1,29.1,0,0,1-13.72-1.64,2.55,2.55,0,0,0-3.4,2.55,71.11,71.11,0,0,0,67.18,67.09c44.87,2.41,82.26-37.32,73.69-84.65A69.85,69.85,0,0,0,2636.76,3120.93Z" transform="translate(-2542.52 -3116.13)"/><circle class="cls-3" cx="76.38" cy="88.05" r="7.25"/><circle class="cls-3" cx="84.88" cy="44.08" r="7.25"/><circle class="cls-3" cx="121.42" cy="75.05" r="7.25"/><circle class="cls-3" cx="27.74" cy="95.37" r="7.25"/><circle class="cls-3" cx="68.37" cy="127.65" r="7.25"/><circle class="cls-3" cx="116.09" cy="112.87" r="7.25"/><path class="cls-3" d="M2576.94,3186.62c1.12,0.71,3.53,1.92,4.95,1.92a7.25,7.25,0,0,0,7.25-7.25,8.31,8.31,0,0,0-3.51-6.48C2584.06,3179.52,2580.49,3183.32,2576.94,3186.62Z" transform="translate(-2542.52 -3116.13)"/><path class="cls-3" d="M2626.62,3123.84a7.21,7.21,0,0,0-1.31-4.15A72.49,72.49,0,0,0,2614,3119,7.25,7.25,0,1,0,2626.62,3123.84Z" transform="translate(-2542.52 -3116.13)"/><path class="cls-3" d="M2673.92,3157.27a10.16,10.16,0,0,0,3.19-.48,73.58,73.58,0,0,0-7.83-12.25,8.62,8.62,0,0,0-2.6,5.48A7.25,7.25,0,0,0,2673.92,3157.27Z" transform="translate(-2542.52 -3116.13)"/></svg>